<svg xmlns="http://www.w3.org/2000/svg" id="Layer_1" data-name="Layer 1" viewBox="0 0 75 75"><defs><style>      .cls-1 {        fill: #5a246b;        fill-rule: evenodd;        stroke-width: 0px;      }    </style></defs><g id="Camada_1" data-name="Camada 1"><g><path class="cls-1" d="M30.78,57.08c-3.11.6-5.45-.03-7.01-1.85,2.13,1.61,6.65,1.5,8.99-.22,3.43-2.51,2.1-8.39.74-11.91-1.99-5.21-8.04-6.76-12.89-4.82,3.38-2.18,7.69-1.8,11.34.65,1.91,1.66,2.78,1.2,2.89-1.15.76-8.59-.57-12.21-2.1-12.26-5.39-.87-7.44-3.51-6.16-7.98-.35,3.92,1.33,6.11,5.1,6.51,2.51-.25,3.87-.74,2.59-5.94-.9-3.24.76-4.31.63-5.97-.35-4.69-3.19-7.38-6.79-7.71,4.22,7.38-12.02,6.79-5.58,18.72-2.05-3.08-2.56-5.89-1.55-8.42-2.29-.27-2.91-1.69-2.73-3.43.14,1.72,1.66,2.97,3.3,2.26,1.33-2.01,4.53-3.49,5.78-5.34,1.98-2.95-1.67-4.75-4.26-4.99-4.22-.38-6.89,2.26-7.98,7.93,1.69,4.2,1.69,7.66,0,10.38.9-3.08.76-5.83-.41-8.28-1.11-2.62-3.79-1.23-5.53,2.21-1.28,2.56-1.93,6.68-1.61,8.99.33,2.4,1.74,4.41,3.71,6.32,3.51,2.7,5.04,2.26,4.61-1.33-.27-3.54-1.96-5.86-5.04-6.92,4.49,1.15,6.65,4.39,6.46,9.73,3.92-1.74,7.58-8.94,11.77-1.42-6.62-7.85-7.85,5.58-16.32,2.4-5.04,1.39-6.76,4.22-5.21,8.47-2.32-4.8-.93-7.9,4.14-9.32-1.31-.79-2.34-1.69-3.08-2.73-1.39-1.66-3.65-1.77-5.7,3.32-1.69,5.8-.57,10.71,2.48,14.66,2.23,2.18,3.76,2.18,4.55,0,1.69-4.41,4.33-6.73,7.98-6.92-3.98,1.33-6.35,3.9-7.33,8.53-.16,1.55,1.55,2.29,5.37,1.33-2.97,1.23-5.34,1.23-7.09.08-1.74-.22-2.59.84-2.51,3.16.63,3.71,1.96,6.38,3.98,7.98,3.13,1.61,4.8.63,4.99-2.95,2.01-9.05,8.67-5.58,9.81-15.7.68,10.52-9.16,7.44-8.55,18.72.16,3.3.6,5.15,3.19,7.41,4.61,4,11.01-.55,6.35-8.12,3.19,2.83,3.54,5.91,1.04,9.24.6,1.42,1.36,2.29,2.29,2.56,2.7.82,5.72-.96,5.91-3.16.25-2.64.68-5.18-2.15-6.92,2.89-2.18,1.72-7.19-2.4-5.83h0s-.01.01-.01.01Z"></path><path class="cls-1" d="M36.47,11.79c.14-4.9,3.35-8.12,8.59-6.38,4.31-4.22,11.99,1.31,11.42,7.47,4.55-.11,7.96,4.22,6.95,11.58-.16,1.25-.63,2.37-1.31,3.46,9.78,2.67,8.26,20.68.93,22.78,2.75,2.45,1.8,7.77-2.42,11.12-2.13,1.33-4.2,1.52-6.24.52.38,5.29-4.55,9.76-9.73,7.33-1.96,4.82-7.11,4.69-7.63-1.04-.06-.6-.03-1.23.03-1.85-.14-16.59-1.04-39.08-.57-54.99h0ZM50.59,33.21c1.39-2.75,2.75-4.14,5.5-4.14,3.03,0,5.48,2.48,5.48,5.5,0,5.48-5.48,8.77-10.98,14.25-5.48-5.48-10.98-8.77-10.98-14.25,0-3.03,2.48-5.5,5.5-5.5,2.75,0,4.12,1.39,5.48,4.14,0,0,.01,0,.01,0Z"></path></g></g></svg>