<svg xmlns="http://www.w3.org/2000/svg" id="Layer_1" data-name="Layer 1" viewBox="0 0 75 75"><defs><style>      .cls-1 {        fill: #5a246b;        stroke-width: 0px;      }    </style></defs><g id="Camada_1" data-name="Camada 1"><path class="cls-1" d="M25.92,72.22c1.64.23,3.3.34,4.97.34,11.56,0,23.33-5.39,31.05-14.5,6.65-7.86,11-22.67,9.88-33.72-.74-7.39-4.61-13.97-10.62-18.05-5.36-3.64-11.82-4.77-17.74-3.09-7.94,2.25-10.8,6.12-13.83,10.2-2.68,3.63-5.45,7.37-12.22,11.03-7.9,4.26-13.09,11.75-14.23,20.58-.74,5.64.83,11.7,4.29,16.6,2.88,4.07,8.41,9.22,18.45,10.62h0ZM6.15,45.39c1.02-7.86,5.65-14.53,12.69-18.33.77-.41,1.49-.83,2.17-1.25-.11,1.24.03,2.54.43,3.85.85,2.83,2.79,5.26,5.06,6.37,4.75,2.3,5.09,4.62,5.52,7.08.66,3.78,1.61,4.59,1.71,5.45.15,1.35-1.84,2.47-2.01,2.57-.45-2.05-.97-7.56-1.96-8.84-1.37-1.77-3.74-1.33-4.85-.26-1.1,1.07-3.05,3.98-4.49,5.19-1.05.93-2.03.22-3.81-.88-.5-.31-1.25-.78-1.39-.73-.43.15-.59.81-.02,1.38,2.17,2.18,2.17,2.62,3.34,3.95.1.11.6.69,1.15.78.24.04.53.01.78-.29.26-.31.63-1.08,1.07-1.54.85-.84,2.94-2.39,3.59-2.83-.12.68-.65,3.78-1.1,6.59-.45,2.81.24,7.1,5.14,8.8,5.96,2.07,21.8.49,27.26-11.99,2.87-6.57-.06-8.67.18-12.87.06-1.02.41-2.01,1.01-2.84.42-.58.78-1.16,1.09-1.74,2.43-5.01,1.59-11.46-2.96-15.61-4.55-4.15-11.49-4.57-16.5-.98-5.47,3.91-6.99,11.07-4.1,16.72.09.17.75,1.54.65,2.97-.15,2.16.96,4.22,2.86,5.25.09.05,2.56,1.48,6.14.91,2.51-.4,4.35-1.81,4.44-1.55.29.95-2.29,2.46-6.67,4.75-1.29-1.43-2.5-2.63-3.2-2.87-3.03-1.08-4.39.78-3.59,1.7.81.92,2.75.87,3.6,2.02.85,1.15,4.65,9.06,7.09,9.92.4.14.89.1,1.43-.07-1.66,1.9-3.5.43-3.95-.08-1.88-2.11-4.17-6.93-5.37-8.54-.28.14-.13.06-.46.22-.61.3-1.35.23-1.89-.18-1.89-1.41-2.14-2.92-2.44-4.77-.43-2.67-.92-5.7-6.51-8.41-1.83-.89-3.41-2.91-4.12-5.27,0-.02-.01-.04-.02-.05-.67-2.27.16-4.71,1.98-6.22,3.19-2.64,5.14-5.28,6.93-7.7,2.94-3.98,5.28-7.13,12.24-9.1,1.57-.45,3.17-.67,4.76-.67,3.62,0,7.22,1.14,10.47,3.35,5.28,3.59,8.68,9.37,9.33,15.88,1.04,10.35-3,24.17-9.19,31.49-8.18,9.66-21.26,14.81-33.32,13.13-8.98-1.25-13.88-5.79-16.41-9.38-2.99-4.24-4.4-9.65-3.77-14.49v.02s.01,0,.01,0Z"></path></g></svg>