<svg xmlns="http://www.w3.org/2000/svg" id="Layer_1" data-name="Layer 1" viewBox="0 0 75 75"><defs><style>      .cls-1 {        fill: #fff;        stroke: #5a246b;        stroke-linecap: round;        stroke-linejoin: round;        stroke-width: 1.5px;      }      .cls-2 {        fill: #5a246b;        stroke-width: 0px;      }    </style></defs><g id="Pelvis"><path class="cls-2" d="M37.69,16v2.91c-.26-.1-.53-.16-.81-.16-6.89,0-6.58-.05-7.09.16v-2.91c0-.45.36-.81.81-.81h6.29c.45,0,.81.36.81.81h0Z"></path><path class="cls-2" d="M37.69,20.92v1.2c-2.64,2.05-5.12,2.05-7.9-.22v-.98c0-.45.36-.81.81-.81h6.29c.45,0,.81.36.81.81h0Z"></path><path class="cls-2" d="M37.69,6.16v2.9c-.26-.1-.53-.16-.81-.16-6.89,0-6.58-.05-7.09.16v-2.9c0-.45.36-.81.81-.81h6.29c.45,0,.81.36.81.81h0Z"></path><path class="cls-2" d="M37.69,11.08v2.9c-.26-.1-.53-.16-.81-.16-6.89,0-6.58-.05-7.09.16v-2.9c0-.45.36-.81.81-.81h6.29c.45,0,.81.36.81.81h0Z"></path><path class="cls-2" d="M42.66,19.94h.34-.34ZM24.75,19.94c.19,0,.53,0,.21,0h-.21ZM22.93,21.96c0-.33.09-.64.23-.94-.15.29-.23.61-.23.94Z"></path><path class="cls-2" d="M58.56,9.55c-7.41-3.21-11.44,3.46-15.73,9.03,1.86.01,3.35,1.52,3.36,3.37.02,2.62-.81,5.17-2.35,7.28,1.48.64,2.41,2.12,2.35,3.73,0,4.84-5.78,11.43-12.31,11.43s-12.31-6.59-12.31-11.43c-.06-1.61.88-3.09,2.37-3.73-1.54-2.09-2.37-4.63-2.37-7.23,0-1.86,1.48-3.38,3.34-3.42-4.29-5.57-8.32-12.23-15.73-9.02-7.67,3.31-6.04,18.56-1.17,30.82.49-.28.9-.68,1.2-1.15,1.62-2.6,5.05-3.4,7.65-1.77,2.6,1.62,3.4,5.05,1.77,7.65-.22.35-.47.67-.76.96-1.58,1.65-2.8,3.6-3.6,5.73,2.35,3,4.86,4.87,7.2,4.87,7.02,0,4.1-6.08,12.41-6.08s5.38,6.08,12.4,6.08c2.34,0,4.84-1.87,7.2-4.87-.8-2.13-2.02-4.08-3.6-5.73-2.15-2.18-2.13-5.7.05-7.85,2.18-2.15,5.7-2.13,7.85.05.29.29.54.61.76.96.3.47.72.87,1.2,1.15,4.9-12.26,6.5-27.51-1.19-30.83h0ZM25.73,49.33l-2.46,2.46c-.36.37-.96.38-1.33.02-.04-.04-.08-.08-.11-.13-1.3-1.68-1.63-3.57-.68-4.51s2.82-.6,4.51.68c.42.31.52.9.21,1.32-.04.05-.08.1-.13.15ZM45.65,51.69c-.3.42-.89.52-1.31.21-.05-.03-.09-.07-.13-.11l-2.46-2.46c-.38-.36-.39-.95-.03-1.32.04-.04.09-.08.14-.12,1.68-1.3,3.57-1.63,4.51-.68s.59,2.81-.71,4.49Z"></path><path class="cls-2" d="M44.82,21.96c.03,3.19-1.36,6.24-3.78,8.32-1.17.99-1.86,2.44-1.87,3.97v7.15c-1.57,1.03-3.41,1.59-5.29,1.62-2.01-.04-3.97-.68-5.62-1.84v-7.22c-.01-1.49-.65-2.9-1.76-3.89-2.27-2.07-3.57-5-3.56-8.07-.04-1.13.84-2.09,1.97-2.13.65-.02,1.27.26,1.67.76,5.05,5.81,9.49,5.85,14.55,0,.68-.91,1.96-1.09,2.87-.42.54.41.85,1.06.82,1.74h0Z"></path><path class="cls-2" d="M16.86,45.15l-.81.94c-2.62,3.05-4.06,6.93-4.06,10.94v12.61h-4.56v-6.33c.02-4.17-1.23-8.25-3.58-11.69-4.17-6.04.18-9.04,2.89-9.38,1.48-.18,2.81-1.01,3.62-2.26,1.23-1.96,3.81-2.55,5.77-1.33s2.55,3.81,1.33,5.77c-.17.27-.36.51-.58.73h0Z"></path><path class="cls-2" d="M50.89,45.15l.81.94c2.62,3.05,4.06,6.93,4.06,10.94v12.61h4.56v-6.33c-.02-4.17,1.23-8.25,3.58-11.69,4.17-6.04-.18-9.04-2.89-9.38-1.48-.18-2.81-1.01-3.62-2.26-1.23-1.96-3.81-2.55-5.77-1.33-1.96,1.23-2.55,3.81-1.33,5.77.17.27.36.51.58.73h0Z"></path></g><g><g><g><path class="cls-1" d="M58.99,54.79l9.83,10.53c.68.73,1.83.75,2.54.04l2.12-2.12c.71-.71.69-1.86-.04-2.54l-10.53-9.83-3.92,3.92Z"></path><path class="cls-1" d="M56.36,51.39h10.13v.83c0,1.66-1.34,3-3,3h-4.13c-1.66,0-3-1.34-3-3v-.83h0Z" transform="translate(-19.7 59.04) rotate(-45)"></path><path class="cls-1" d="M43.19,35.08c-4.88,4.87-4.88,12.78,0,17.65,4.88,4.88,12.78,4.88,17.65,0,4.87-4.87,4.87-12.78,0-17.65s-12.78-4.88-17.65,0Z"></path><path class="cls-1" d="M45.14,37.03c-3.8,3.8-3.8,9.96,0,13.75s9.96,3.8,13.75,0,3.8-9.96,0-13.75c-3.8-3.8-9.96-3.8-13.75,0Z"></path></g><path class="cls-1" d="M55.68,34.89c-3.61-1.42-7.74-.71-10.54,2.14-3.77,3.83-3.8,9.96,0,13.75s9.96,3.8,13.75,0,3.8-9.96,0-13.75c-.53-.53-1.1-.98-1.71-1.36"></path></g><g><line class="cls-1" x1="54.62" y1="39.63" x2="47.75" y2="46.51"></line><line class="cls-1" x1="57.16" y1="42.17" x2="50.29" y2="49.05"></line></g></g></svg>