<svg xmlns="http://www.w3.org/2000/svg" id="Layer_1" data-name="Layer 1" viewBox="0 0 75 75"><defs><style>      .cls-1 {        fill: #5a246b;        stroke-width: 0px;      }    </style></defs><g id="Camada_1" data-name="Camada 1"><path class="cls-1" d="M42.28,20.41l-.74,1.08c-.5.74-.41,1.68.21,2.14,2.72,2.02,5.34,4.29,7.78,6.74,2.45,2.44,4.72,5.06,6.74,7.78.46.62,1.4.71,2.14.21l1.08-.74c-4.57-6.62-10.58-12.63-17.2-17.2h0Z"></path><path class="cls-1" d="M73.87,26.63c-1.65-4.37-3.64-8.17-8.04-12.57-4.39-4.4-8.2-6.4-12.57-8.04-.66-.25-1.39.09-1.64.74-.25.66.09,1.39.74,1.64,4.17,1.58,7.58,3.37,11.67,7.46s5.89,7.5,7.46,11.67c.19.51.68.82,1.19.82.15,0,.3-.03.45-.08.66-.25.99-.98.74-1.64h0Z"></path><path class="cls-1" d="M61.51,18.38c-2.52-2.52-5.24-4.19-8.8-5.41-.67-.23-1.38.13-1.61.79-.23.66.13,1.38.79,1.61,3.22,1.1,5.56,2.53,7.83,4.8,2.27,2.27,3.7,4.6,4.8,7.83.18.53.67.86,1.2.86.14,0,.27-.02.41-.07.66-.23,1.02-.95.79-1.61-1.22-3.56-2.89-6.28-5.41-8.8,0,0,0,0,0,0Z"></path><path class="cls-1" d="M51.47,22.38c1.59.4,2.91,1.12,3.92,2.13s1.73,2.33,2.13,3.92c.15.58.66.96,1.23.96.1,0,.21-.01.31-.04.68-.17,1.09-.86.92-1.54-.51-2.04-1.45-3.76-2.79-5.1-1.34-1.34-3.05-2.28-5.1-2.79-.68-.17-1.37.24-1.54.92-.17.68.24,1.37.92,1.54,0,0,0,0,0,0Z"></path><path class="cls-1" d="M20.97,60.59s.05-.06.07-.08c1.53,1.09,3,1.06,4.39.37l4.69-2.49c1.76-.86,3.37-2.01,4.77-3.41l8.49-8.49c1.25-1.25,3.07-1.65,4.56-1.01l3.59,1.92c1.09.46,2.39.35,3.48-.31l5.32-3.2c1.24-.74,1.69-2.32,1-3.45-.23-.38-.47-.76-.72-1.14l-1.06.73c-.67.46-1.43.69-2.17.69-1.07,0-2.09-.46-2.75-1.35-1.96-2.64-4.16-5.18-6.54-7.56-2.37-2.38-4.92-4.58-7.56-6.55-1.5-1.12-1.8-3.28-.67-4.92l.73-1.06c-.38-.24-.76-.48-1.14-.72-1.13-.69-2.71-.24-3.45,1-1.07,1.77-2.13,3.54-3.2,5.32-.66,1.1-.77,2.39-.31,3.48l1.79,3.46c.64,1.49.23,3.31-1.01,4.56l-8.49,8.49c-1.4,1.4-2.55,3.01-3.41,4.77l-2.49,4.69c-.68,1.39-.71,2.85.37,4.39-.03.02-.06.04-.08.07l-5.6,5.6c-2.86,2.86-7.5,2.86-10.36,0-.49-.49-1.3-.49-1.8,0-.49.49-.49,1.3,0,1.8,1.92,1.92,4.45,2.88,6.97,2.88s5.05-.96,6.97-2.88l5.6-5.6s.02.01.02.01ZM30.46,46.22l5.01-5.01c.79-.79,2.07-.79,2.86,0l.36.36c.79.79.79,2.07,0,2.86l-5.01,5.01c-.79.79-2.07.79-2.86,0l-.36-.36c-.79-.79-.79-2.07,0-2.86Z"></path></g></svg>