<svg xmlns="http://www.w3.org/2000/svg" id="Layer_1" data-name="Layer 1" viewBox="0 0 75 75"><defs><style>      .cls-1 {        fill: #5a246b;        stroke-width: 0px;      }    </style></defs><g id="Camada_1" data-name="Camada 1"><path class="cls-1" d="M53.37,23.36c.37,1.28,1.71,2.01,2.99,1.64,6.47-1.89,10.96-4.93,13.33-9.06.66-1.15.26-2.63-.89-3.29s-2.62-.26-3.29.89l-.03.05-.31.47-.48-.29-12.6-8.23.36-.48c.33-.44.66-.83,1.01-1.18.95-.93.96-2.46.03-3.41-.45-.46-1.05-.71-1.69-.72-.64,0-1.25.24-1.71.69-7.63,7.47-5.09,22.2-4.77,23.86v.06c.39,3,.44,5.77.14,8.25l-.11.93-6.7-4.55,1.17-.47c.1-.05.21-.09.31-.13.6-.23,1.08-.67,1.35-1.26s.29-1.24.06-1.84-.67-1.08-1.26-1.35-1.24-.29-1.84-.06c-15.42,5.82-15.36,20.52-13.17,27.48.58,2.71.81,5.27.71,7.65l-.04,1.02-8.45-5.73,1.07-.38c.76-.27,1.43-.47,2.08-.63,1.29-.33,2.06-1.64,1.74-2.93-.16-.62-.55-1.15-1.11-1.48s-1.2-.42-1.83-.26c-11.1,2.83-14.58,10.12-14.73,10.43-.19.42-.26.87-.21,1.32.11.83.62,1.53,1.37,1.88.58.27,1.24.3,1.84.08.6-.22,1.08-.66,1.36-1.25l.29-.61.57.35,12.72,8.63-.39.48c-.49.6-.85.92-.91.98-.64.54-.95,1.34-.84,2.16.06.45.24.87.53,1.22.41.5.99.8,1.63.87s1.27-.13,1.76-.54c.38-.31,9.1-7.73,5.52-24.36l-.07-.26c-.1-.32-1.08-3.49-.8-7.44l.07-.99,6.57,4.46-1.16.39s-.08.03-.13.05c-1.1.36-1.79,1.45-1.64,2.59.02.15.05.3.1.45.42,1.26,1.78,1.95,3.04,1.53,6.35-2.09,16.62-8.43,14.14-27.42l-.03-.18c-.37-1.85-.71-5.04-.54-8.39l.05-1.01,8.05,5.46-1.07.37c-.51.18-1.02.34-1.52.48-1.15.33-1.87,1.43-1.72,2.61.02.13.04.25.08.37v.02h0ZM25.42,63.08c-.3,1.31-.71,2.54-1.23,3.67l-.28.61-12.96-8.79.52-.49c.91-.86,1.97-1.65,3.16-2.36l.31-.19,10.56,7.16-.09.38h0ZM41.08,42.45c-.74.76-1.62,1.47-2.6,2.1l-.32.21-8.5-5.77.13-.41c.33-1.04.76-2.04,1.29-2.98l.31-.54,10.16,6.89-.47.49h0ZM44.59,36.48c-.34,1.06-.78,2.06-1.29,2.97l-.3.54-10.13-6.87.48-.48c.75-.76,1.61-1.47,2.56-2.11l.32-.22,8.49,5.76s-.13.41-.13.41ZM49.93,11.35l.07-.37c.19-.92.42-1.79.71-2.58l.24-.68,12.62,8.24-.59.5c-.72.6-1.56,1.17-2.49,1.68l-.31.17-10.26-6.95h0Z"></path></g></svg>