<svg xmlns="http://www.w3.org/2000/svg" id="Layer_1" data-name="Layer 1" viewBox="0 0 75 75"><defs><style>      .cls-1 {        fill: #5a246b;        stroke-width: 0px;      }    </style></defs><g id="Camada_1" data-name="Camada 1"><g><path class="cls-1" d="M37.21,72.31h.06c7.59,0,13.78-6.16,13.82-13.76l.21-47.79h1.71s.01,0,.02,0c1,0,2.01-.43,2.77-1.18.76-.75,1.2-1.77,1.2-2.77s-.39-2.03-1.12-2.79c-.74-.77-1.75-1.19-2.83-1.2l-31.06-.14h-.02c-2.11,0-3.96,1.84-3.97,3.95,0,1.05.39,2.03,1.12,2.79.74.77,1.75,1.19,2.83,1.2h1.71l-.21,47.8c-.03,7.62,6.14,13.85,13.76,13.88h0ZM27.09,10.65l20.62.09-.06,13.51c-.01,2.58-.03,5.16-.04,7.74-.03,5.16-.06,10.32-.06,15.49,0,1.02,0,2.05-.01,3.07,0,1.63-.02,3.26,0,4.89,0,.43.02.87.03,1.3.05,1.91.1,3.89-.73,5.84-1.62,3.77-5.45,6.3-9.56,6.3h-.05c-2.77-.01-5.38-1.11-7.33-3.08-1.95-1.98-3.03-4.59-3.01-7.36l.21-47.79h0Z"></path><path class="cls-1" d="M37.78,17.75c0,1.66-1.36,3-3.02,2.99s-3-1.36-2.99-3.02,1.36-3,3.02-2.99c1.66,0,3,1.36,2.99,3.02"></path><path class="cls-1" d="M43.74,28.63c0,1.66-1.36,3-3.02,2.99s-3-1.36-2.99-3.02,1.36-3,3.02-2.99c1.66,0,3,1.36,2.99,3.02"></path><path class="cls-1" d="M37.24,64.84c3.51.02,6.36-2.81,6.37-6.32l.09-20.71-12.69-.06-.09,20.54c-.02,3.67,2.81,6.53,6.32,6.54h0Z"></path></g></g></svg>