<svg xmlns="http://www.w3.org/2000/svg" id="Layer_1" data-name="Layer 1" viewBox="0 0 75 75"><defs><style>      .cls-1 {        fill: #5a246b;        stroke-width: 0px;      }    </style></defs><g id="Layer_1-2" data-name="Layer 1-2"><g><path class="cls-1" d="M66.1,27.6c1.51-1.6,3.29-2.82,4.07-4.5.64-1.36.69-3.72-.12-4.83-.81-1.12-3.05-1.82-4.57-1.69-3.78.33-6.49,2.85-9.17,5.37-2.3,2.17-4.92,3.98-7.26,6.11-.71.65-1.27,1.79-1.35,2.76-.38,4.38-1.33,8.45-4.63,11.69-.38.37-.31,1.38-.2,2.07.83,5.22.88,10.38-.78,15.47-.53,1.61-1.21,2.46-2.58,1.15.55-4.16,1.08-8.16,1.65-12.52-1.28.22-1.81.31-2.66.46.07-3.31-.78-6.46,1.16-9.55,1.1-1.75,1.6-3.86,2.35-5.82.93-2.42,1.84-4.85,2.72-7.19h-14.52c2.44,7.19,7.02,13.96,6.35,22.52-.81-.14-1.35-.22-1.9-.31-.95,3.48-.91,3.97,1.09,12.08-1.31,1.41-2.2,1.17-2.81-.66-1.72-5.17-1.69-10.41-.83-15.71.12-.72.03-1.78-.42-2.23-2.89-2.94-3.97-6.56-4.26-10.52-.15-2.02-.7-3.48-2.83-4.53-1.96-.96-3.58-2.75-5.14-4.37-2.65-2.78-5.39-5.32-9.28-6.24-2.14-.5-4.11-.27-5.44,1.6-1.42,2-.88,4.09.54,5.82,1.03,1.25,2.39,2.22,3.6,3.3,3.09-3.16,5.68-2.84,8.59.62.56.66,1.45,1.04,1.96,1.72.56.74,1.29,1.75,1.15,2.49-.13.71-1.24,1.71-1.98,1.77-2.5.22-5.04.21-7.55.02-.83-.06-2.21-.85-2.29-1.45-.27-2.02-1.82-2.58-3.15-3.53C2.36,26.62.18,23.55.79,19.36c.7-4.86,5.55-7.28,11-5.73,4.03,1.15,7.12,3.71,9.88,6.74,3.1,3.41,5.15,3.73,9.39,2.18,4.45-1.63,8.96-2.08,13.43.29,2.91,1.54,5.83.65,8.44-1.9,2.15-2.1,4.34-4.32,6.92-5.78,2.09-1.18,4.76-1.79,7.19-1.82,5.22-.08,8.57,4.61,6.81,9.52-.75,2.1-2.36,4.02-3.96,5.66-1.33,1.36-3.4,1.88-3.78,4.27-.18,1.13-4.92,2.12-6.68,1.7-.94-.22-1.98-.16-2.85-.51-.83-.34-1.87-.92-2.16-1.65-.25-.63.2-1.88.77-2.4,1.43-1.31,3.1-2.36,4.67-3.51,2.87-2.1,3.57-2.02,6.25,1.18h0Z"></path><path class="cls-1" d="M42.68,27.92c-1.57,4.48-3.07,8.76-4.57,13.03-.41,0-.83-.01-1.24-.02-1.49-4.28-2.99-8.56-4.54-13.01h10.36Z"></path><path class="cls-1" d="M35.04,50.37h4.9c-.46,2.91-.81,5.46-1.3,7.98-.1.52-.73.94-1.11,1.4-.4-.44-1.05-.84-1.15-1.34-.5-2.52-.86-5.07-1.34-8.04Z"></path></g></g></svg>